<?xml version="1.0" standalone="no"?>
<!DOCTYPE svg PUBLIC "-//W3C//DTD SVG 20010904//EN"
 "http://www.w3.org/TR/2001/REC-SVG-20010904/DTD/svg10.dtd">
<svg version="1.0" xmlns="http://www.w3.org/2000/svg"
 width="332.000000pt" height="299.000000pt" viewBox="0 0 332.000000 299.000000"
 preserveAspectRatio="xMidYMid meet">

<g transform="translate(0.000000,299.000000) scale(0.100000,-0.100000)"
fill="#000000" stroke="none">
<path d="M1481 2559 c-75 -39 -126 -133 -119 -221 3 -39 3 -39 -64 -75 l-67
-35 -27 21 c-32 25 -85 27 -118 6 -30 -20 -50 -67 -43 -103 5 -25 0 -30 -84
-75 l-90 -48 -38 34 c-67 60 -166 71 -251 27 -42 -21 -96 -80 -111 -119 -17
-42 -13 -124 6 -165 25 -53 90 -113 133 -123 l37 -9 3 -91 c3 -87 2 -93 -20
-104 -39 -20 -58 -51 -58 -98 0 -39 5 -49 40 -82 l40 -38 0 -90 0 -90 -40 -11
c-160 -43 -204 -275 -72 -378 94 -73 207 -69 297 10 l36 31 87 -46 87 -46 7
-48 c9 -65 45 -97 101 -90 21 3 47 13 57 22 17 16 22 15 85 -20 l67 -38 -6
-41 c-8 -55 17 -137 55 -180 85 -97 234 -101 326 -10 48 49 67 105 60 178 -4
48 -4 48 39 76 84 53 99 56 135 26 35 -30 39 -31 83 -12 44 18 66 52 66 101
l0 40 85 44 85 45 27 -26 c133 -124 329 -73 379 99 20 69 10 125 -34 183 -33
44 -55 61 -106 81 l-41 17 -3 95 c-2 88 -1 96 17 102 34 11 61 54 61 98 0 34
-6 46 -40 79 l-41 38 3 82 3 81 42 14 c75 25 153 133 153 212 0 100 -75 198
-169 221 -83 20 -162 -1 -222 -57 l-26 -24 -87 47 -86 48 0 44 c0 78 -76 126
-143 91 -12 -7 -25 -17 -29 -22 -6 -10 -116 40 -142 64 -5 4 -10 34 -10 67 -2
73 -39 140 -98 179 -57 38 -154 44 -217 12z m184 -60 c39 -23 75 -87 75 -131
0 -92 -90 -174 -179 -165 -81 9 -141 77 -141 161 0 130 134 203 245 135z m191
-284 c49 -28 63 -41 68 -65 9 -45 51 -80 97 -80 21 0 41 5 44 10 4 7 44 -9
103 -41 54 -28 98 -53 100 -54 2 -2 -2 -22 -9 -45 -10 -33 -10 -51 1 -93 8
-31 9 -52 3 -54 -5 -2 -56 -30 -114 -62 -57 -32 -126 -71 -154 -86 -27 -15
-81 -46 -119 -67 l-68 -40 -25 25 -25 25 56 73 c52 69 58 73 90 71 73 -7 136
52 136 125 0 102 -92 161 -184 118 -39 -19 -55 -43 -63 -100 -4 -32 -1 -51 11
-69 9 -14 16 -31 16 -37 0 -6 -23 -42 -51 -80 -47 -63 -52 -68 -72 -57 -12 6
-38 14 -57 18 l-35 6 4 63 c3 56 7 66 35 91 26 24 31 35 31 75 0 42 -4 51 -37
80 -37 31 -38 34 -38 103 l0 71 53 24 c28 13 66 40 82 60 34 40 35 40 121 -8z
m-421 -5 c22 -22 57 -46 77 -52 l38 -11 0 -82 c0 -74 -2 -83 -20 -88 -11 -3
-27 -22 -36 -43 -20 -47 -6 -106 30 -129 18 -12 25 -28 29 -71 7 -69 2 -84
-32 -84 -14 0 -35 -7 -45 -15 -11 -8 -23 -15 -26 -15 -4 0 -30 34 -59 76 l-54
76 17 34 c46 98 -22 195 -127 181 -123 -17 -145 -195 -31 -243 20 -9 48 -13
63 -9 30 6 37 1 95 -82 41 -60 42 -66 19 -92 -16 -20 -17 -19 -57 3 -23 12
-79 43 -126 69 -271 147 -295 162 -291 188 6 33 7 109 1 138 -4 21 5 29 89 77
72 40 99 50 112 43 51 -27 122 6 137 64 6 26 21 39 73 68 35 21 69 37 74 38 6
1 29 -17 50 -39z m-263 -7 c22 -20 23 -41 1 -65 -20 -22 -41 -23 -65 -1 -23
20 -23 52 0 69 23 18 42 17 64 -3z m880 0 c22 -20 23 -41 1 -65 -32 -36 -83
-17 -83 32 0 48 45 67 82 33z m-1292 -161 c54 -27 80 -74 80 -145 0 -129 -88
-197 -208 -162 -55 17 -84 43 -107 99 -58 137 98 275 235 208z m1783 6 c12 -6
27 -18 33 -27 16 -21 -10 -40 -56 -41 l-35 0 28 -15 c16 -8 46 -20 68 -27 42
-12 47 -31 10 -36 -20 -3 -22 -8 -16 -41 l6 -38 -53 -10 c-29 -5 -75 -8 -103
-6 -44 3 -48 2 -32 -10 18 -15 24 -47 8 -47 -18 0 -59 41 -75 74 -39 83 -3
185 79 222 37 17 109 18 138 2z m-1263 -123 c39 -20 46 -81 13 -117 -37 -41
-123 -1 -123 57 0 29 40 75 65 75 9 0 29 -7 45 -15z m321 5 c24 -13 27 -75 3
-84 -37 -14 -74 8 -74 44 0 20 25 50 41 50 6 0 19 -5 30 -10z m344 -2 c14 -6
26 -14 26 -17 6 -28 5 -53 -4 -58 -6 -3 -7 -1 -3 5 3 6 -2 16 -11 22 -17 11
-17 11 0 6 9 -3 17 -1 17 5 0 6 -8 9 -17 7 -12 -2 -17 -11 -15 -26 3 -17 -2
-22 -18 -22 -13 0 -19 -4 -14 -11 4 -8 0 -9 -15 -4 -26 8 -28 -10 -3 -24 9 -6
13 -11 8 -11 -17 0 -56 43 -56 62 0 29 19 58 43 68 30 12 32 12 62 -2z m477
-254 l38 -7 0 -84 c0 -83 0 -85 -35 -117 -30 -29 -35 -40 -35 -81 0 -41 5 -52
35 -81 l35 -33 0 -93 0 -94 -44 -12 c-24 -6 -58 -23 -75 -37 l-31 -27 -32 20
c-18 11 -60 34 -93 52 -91 50 -136 75 -185 104 -25 14 -71 40 -102 56 -31 16
-59 34 -63 40 -4 6 -1 26 5 45 l12 35 83 0 83 0 21 -35 c23 -39 75 -75 109
-75 63 0 132 69 132 133 0 141 -193 187 -246 60 l-14 -33 -85 0 c-46 0 -86 3
-89 8 -2 4 -7 23 -11 42 -6 32 -4 37 22 50 69 36 419 233 427 241 5 4 29 -9
54 -32 29 -25 59 -41 84 -45z m-1446 18 c117 -63 346 -191 353 -198 2 -2 -1
-22 -8 -44 l-12 -40 -79 0 -79 0 -22 40 c-17 29 -34 44 -66 56 -157 60 -251
-164 -101 -242 58 -30 133 -5 168 57 l21 39 79 0 79 0 12 -40 c7 -22 10 -42 8
-44 -2 -2 -47 -27 -99 -56 -52 -29 -115 -64 -140 -78 -25 -14 -87 -49 -139
-78 l-95 -53 -25 21 c-32 24 -87 48 -112 48 -17 0 -19 9 -19 99 0 92 2 100 21
106 26 8 59 62 59 95 0 33 -33 87 -59 95 -19 6 -21 14 -21 101 0 84 2 94 18
94 26 0 119 48 126 65 3 8 9 15 15 15 5 0 58 -26 117 -58z m659 -93 c39 -11
125 -85 125 -107 0 -7 -11 -14 -25 -18 -30 -7 -26 -15 18 -30 22 -8 27 -14 17
-18 -8 -3 -28 -10 -44 -16 -28 -10 -28 -11 -23 -70 6 -58 1 -70 -19 -50 -11
11 -56 1 -48 -11 3 -5 0 -9 -5 -9 -6 0 -11 -4 -11 -10 0 -5 6 -8 13 -6 6 1 9
1 4 -1 -4 -3 -5 -9 -2 -14 4 -5 -2 -6 -12 -2 -16 6 -16 5 -4 -11 12 -15 12
-17 0 -14 -8 2 -13 -4 -12 -12 2 -11 -8 -16 -40 -17 -101 -6 -197 94 -197 204
0 108 56 182 160 214 36 11 60 10 105 -2z m-575 -154 c6 -7 13 -22 15 -32 2
-10 4 -18 5 -18 1 0 3 -7 5 -15 2 -12 -5 -15 -31 -12 -19 2 -34 0 -34 -6 0 -6
10 -8 23 -6 l22 5 -22 -12 c-13 -7 -23 -18 -23 -26 0 -21 -29 -15 -55 12 -29
28 -32 70 -9 103 18 26 84 31 104 7z m1125 5 c3 -5 -2 -10 -12 -10 -20 0 -77
-54 -86 -80 -3 -10 -7 -6 -12 11 -4 17 -1 38 9 58 14 27 22 31 56 31 21 0 42
-4 45 -10z m-1487 -26 c12 -8 22 -25 22 -36 0 -27 -27 -58 -51 -58 -44 0 -67
70 -31 96 22 17 33 17 60 -2z m1809 0 c3 -9 2 -19 -4 -23 -13 -8 -26 -44 -13
-36 6 3 10 1 10 -5 0 -6 5 -8 13 -4 8 5 8 2 -2 -9 -19 -24 -36 -21 -60 9 -21
27 -19 51 7 72 22 17 41 15 49 -4z m-1123 -213 c20 -22 17 -30 -49 -125 -37
-53 -42 -56 -72 -51 -115 21 -190 -132 -106 -217 101 -100 264 25 198 153 -9
16 -12 35 -8 42 33 53 99 137 107 137 16 0 84 -25 92 -33 4 -4 7 -36 7 -72 0
-63 -1 -67 -34 -94 -30 -25 -34 -35 -34 -76 0 -40 5 -51 33 -76 31 -28 32 -31
32 -107 l0 -79 -41 -12 c-23 -7 -61 -30 -85 -53 l-43 -40 -28 20 c-15 11 -47
29 -70 41 -36 18 -43 26 -43 52 0 63 -78 106 -136 74 -32 -17 -33 -17 -71 6
-21 13 -59 35 -85 49 -26 14 -48 28 -49 33 0 4 2 26 5 50 4 26 1 60 -8 90 -16
53 -21 46 69 93 33 17 83 43 110 59 59 33 233 132 255 145 23 14 35 12 54 -9z
m574 -64 c81 -46 187 -105 235 -131 56 -31 86 -53 83 -61 -23 -61 -27 -94 -17
-130 6 -22 7 -42 3 -46 -4 -4 -45 -27 -92 -51 -82 -44 -86 -45 -116 -30 -60
28 -134 -16 -134 -80 -1 -31 -5 -35 -77 -70 l-77 -37 -42 39 c-23 21 -61 44
-84 51 l-42 13 7 75 c6 62 12 80 31 98 55 51 58 111 7 162 -35 34 -37 40 -37
100 -1 59 1 64 24 73 14 6 39 16 57 24 32 13 33 13 63 -31 16 -24 30 -46 30
-50 0 -3 9 -15 20 -27 21 -23 26 -53 11 -62 -19 -12 -22 -87 -5 -123 52 -107
198 -90 233 28 10 34 10 45 -6 76 -26 52 -65 77 -120 78 -46 1 -47 2 -96 74
-46 66 -49 74 -37 97 8 13 17 24 22 24 5 0 75 -38 156 -83z m-1209 -132 c37
-19 81 -71 81 -96 0 -12 -13 -27 -31 -37 -26 -14 -30 -22 -26 -47 3 -16 8 -38
12 -47 4 -11 3 -18 -5 -18 -6 0 -8 5 -5 10 7 12 -32 12 -60 0 -17 -7 -15 -9
13 -9 17 -1 32 -6 32 -12 0 -5 4 -8 9 -5 5 4 8 -1 7 -10 -4 -24 -45 -43 -94
-44 -111 -1 -194 105 -162 207 32 99 144 152 229 108z m1782 5 c23 -13 25 -30
4 -30 -8 0 -15 -4 -15 -9 0 -5 -12 -12 -27 -16 l-26 -6 25 -13 c14 -8 49 -21
77 -31 52 -17 68 -35 31 -35 -17 0 -20 -7 -20 -45 l0 -45 -39 0 c-30 0 -40 -4
-44 -20 -7 -26 -24 -26 -32 1 -6 19 -12 20 -47 15 l-40 -7 6 46 c4 25 5 45 2
45 -2 0 -11 2 -19 6 -11 4 -14 -3 -12 -28 1 -32 13 -68 24 -78 14 -12 30 -50
22 -50 -19 0 -79 79 -85 113 -13 70 25 149 89 185 25 14 100 15 126 2z m-1248
-58 c35 -36 35 -74 1 -101 -34 -27 -62 -27 -91 1 -30 28 -30 74 -1 105 29 31
58 29 91 -5z m655 20 c13 -9 13 -62 -1 -62 -5 0 -7 -6 -4 -14 3 -7 0 -19 -6
-25 -9 -9 -9 -14 1 -20 11 -6 9 -9 -5 -13 -27 -7 -60 7 -73 32 -28 52 40 132
88 102z m-324 -84 c13 -22 -3 -72 -26 -76 -19 -4 -58 31 -58 52 0 41 62 59 84
24z m-442 -255 c21 -18 24 -53 6 -71 -20 -20 -56 -14 -74 13 -15 23 -15 27 0
50 19 29 42 32 68 8z m863 -3 c16 -18 16 -20 2 -20 -21 0 -21 -9 -3 -29 10
-11 12 -21 6 -31 -8 -13 -13 -13 -37 0 -34 19 -41 54 -17 81 21 24 27 24 49
-1z m-421 -89 c49 -12 60 -23 61 -66 1 -26 -3 -35 -14 -35 -14 0 -14 -2 -1
-10 8 -5 28 -10 43 -10 37 0 31 -24 -7 -28 -25 -3 -27 -7 -24 -40 l3 -37 -50
-6 c-27 -3 -66 -2 -84 2 -19 4 -39 6 -43 3 -14 -9 -9 -24 7 -24 9 0 18 -12 21
-30 4 -17 11 -27 17 -23 6 3 7 1 3 -6 -13 -20 -87 29 -114 74 -47 82 -7 202
79 232 42 15 53 15 103 4z"/>
<path d="M1491 2354 c0 -11 3 -14 6 -6 3 7 2 16 -1 19 -3 4 -6 -2 -5 -13z"/>
<path d="M1534 2341 c11 -11 23 -21 28 -21 14 0 -1 19 -25 31 -22 12 -22 12
-3 -10z"/>
<path d="M1609 2340 c-18 -15 -20 -19 -8 -20 9 0 24 9 34 20 23 26 4 26 -26 0z"/>
<path d="M724 1874 c-18 -14 -18 -15 4 -4 12 6 22 13 22 15 0 8 -5 6 -26 -11z"/>
<path d="M634 1865 c11 -8 22 -12 25 -9 6 6 -19 24 -34 24 -5 -1 -1 -7 9 -15z"/>
<path d="M2380 1880 c0 -11 2 -20 4 -20 2 0 6 9 9 20 3 11 1 20 -4 20 -5 0 -9
-9 -9 -20z"/>
<path d="M2417 1873 c8 -21 23 -33 41 -33 22 0 13 26 -13 38 -34 16 -36 15
-28 -5z"/>
<path d="M2523 1878 c-20 -10 -33 -38 -17 -38 13 0 42 21 48 35 6 17 0 18 -31
3z"/>
<path d="M1677 1469 c7 -7 15 -10 18 -7 3 3 -2 9 -12 12 -14 6 -15 5 -6 -5z"/>
<path d="M1650 1380 c-8 -5 -11 -12 -7 -16 4 -4 13 -2 19 4 15 15 7 24 -12 12z"/>
<path d="M1604 1349 c-19 -22 -19 -22 4 -10 12 6 22 16 22 21 0 15 -5 12 -26
-11z"/>
<path d="M627 849 c7 -7 15 -10 18 -7 3 3 -2 9 -12 12 -14 6 -15 5 -6 -5z"/>
<path d="M618 783 c7 -3 16 -2 19 1 4 3 -2 6 -13 5 -11 0 -14 -3 -6 -6z"/>
<path d="M2420 851 c0 -6 9 -15 21 -21 18 -10 20 -9 17 7 -3 19 -38 32 -38 14z"/>
<path d="M2523 850 c-31 -12 -29 -30 2 -30 14 0 25 2 25 4 0 2 3 11 6 20 7 18
0 19 -33 6z"/>
<path d="M1609 363 c-13 -16 -12 -17 4 -4 16 13 21 21 13 21 -2 0 -10 -8 -17
-17z"/>
</g>
</svg>
